<?xml version="1.0" encoding="utf-8"?>
<svg xmlns="http://www.w3.org/2000/svg" viewBox="147.541 38.884 206.910 280.480">
    <path fill="#0f1314" d="M 250.994 46.884 C 251.027 46.884 251.051 46.884 251.064 46.884 C 251.096 46.886 251.134 46.912 251.164 46.954 C 263.934 62.584 276.244 79.354 269.144 100.664 C 266.964 107.214 261.594 114.884 258.044 121.264 C 255.937 125.031 253.647 130.341 251.174 137.194 C 251.149 137.27 251.119 137.325 251.104 137.324 C 251.084 137.331 251.061 137.334 251.034 137.334 C 251.007 137.334 250.984 137.331 250.964 137.324 C 250.948 137.325 250.919 137.269 250.894 137.194 C 248.414 130.341 246.121 125.034 244.014 121.274 C 240.454 114.894 235.084 107.224 232.894 100.684 C 225.774 79.374 238.074 62.594 250.824 46.954 C 250.854 46.912 250.891 46.886 250.924 46.884 C 250.937 46.884 250.961 46.884 250.994 46.884 Z" style="stroke-width: 1px;"/>
    <path fill="#0f1314" d="M 250.964 160.434 C 251.384 160.434 251.794 159.754 252.194 158.394 C 257.534 140.374 264.084 121.284 274.794 107.114 C 285.644 92.754 301.714 86.074 319.664 90.324 C 320.014 90.408 320.267 90.714 320.284 91.074 C 320.791 102.021 318.164 111.757 312.404 120.284 C 308.244 126.434 302.184 131.944 295.054 134.604 C 293.054 135.344 290.674 136.337 287.914 137.584 C 267.774 146.684 256.984 166.894 251.214 187.124 C 251.174 187.264 251.094 187.334 250.974 187.334 C 250.854 187.334 250.774 187.264 250.734 187.124 C 244.944 166.894 234.134 146.694 213.984 137.614 C 211.224 136.367 208.844 135.374 206.844 134.634 C 199.714 131.984 193.654 126.474 189.484 120.334 C 183.717 111.807 181.084 102.071 181.584 91.124 C 181.601 90.764 181.853 90.458 182.204 90.374 C 200.144 86.114 216.224 92.784 227.084 107.134 C 237.804 121.294 244.374 140.384 249.724 158.394 C 250.124 159.754 250.537 160.434 250.964 160.434 Z" style="stroke-width: 1px;"/>
    <path fill="#0f1314" d="M 250.984 203.274 C 251.304 203.274 251.557 203.021 251.744 202.514 C 258.254 184.574 269.134 166.524 284.744 155.774 C 293.071 150.041 302.581 146.387 313.274 144.814 C 322.954 143.394 334.324 144.154 345.964 144.074 C 346.081 144.074 346.192 144.12 346.275 144.203 C 346.358 144.285 346.404 144.397 346.404 144.514 C 346.451 186.567 346.421 213.274 346.314 224.634 C 346.124 245.164 337.964 268.334 318.464 278.214 C 307.304 283.864 291.894 283.444 285.244 271.024 C 283.344 267.471 282.131 263.587 281.604 259.374 C 281.594 259.296 281.635 259.218 281.704 259.184 C 281.774 259.149 281.855 259.165 281.904 259.224 C 285.157 262.591 289.084 264.707 293.684 265.574 C 300.637 266.887 306.997 265.607 312.764 261.734 C 330.274 249.974 332.964 223.904 332.924 204.894 C 332.917 201.521 332.944 192.631 333.004 178.224 C 332.998 178.135 332.938 178.06 332.853 178.035 C 332.767 178.01 332.676 178.042 332.624 178.114 C 323.431 192.274 312.971 208.814 301.244 227.734 C 299.171 231.074 296.817 234.197 294.184 237.104 C 284.964 247.274 271.334 251.954 257.954 252.714 C 257.727 252.725 257.518 252.837 257.382 253.021 C 257.247 253.205 257.2 253.441 257.254 253.664 C 260.984 269.204 273.964 280.374 288.464 285.664 C 288.556 285.694 288.613 285.784 288.601 285.88 C 288.589 285.975 288.51 286.048 288.414 286.054 C 272.414 287.674 259.434 297.674 251.214 311.214 C 251.176 311.286 251.106 311.337 251.024 311.354 C 250.991 311.361 250.954 311.364 250.914 311.364 C 250.881 311.364 250.844 311.361 250.804 311.354 C 250.725 311.335 250.66 311.284 250.624 311.214 C 242.424 297.664 229.454 287.644 213.454 286.004 C 213.358 285.998 213.279 285.925 213.267 285.83 C 213.255 285.734 213.312 285.644 213.404 285.614 C 227.914 280.344 240.904 269.194 244.654 253.654 C 244.708 253.431 244.661 253.195 244.526 253.011 C 244.39 252.827 244.18 252.715 243.954 252.704 C 230.574 251.924 216.954 247.234 207.744 237.054 C 205.117 234.141 202.767 231.014 200.694 227.674 C 188.994 208.741 178.554 192.187 169.374 178.014 C 169.322 177.942 169.23 177.91 169.145 177.935 C 169.06 177.96 168.999 178.035 168.994 178.124 C 169.041 192.531 169.057 201.421 169.044 204.794 C 168.984 223.804 171.634 249.874 189.134 261.654 C 194.894 265.534 201.251 266.824 208.204 265.524 C 212.811 264.664 216.741 262.551 219.994 259.184 C 220.043 259.125 220.124 259.109 220.194 259.144 C 220.263 259.178 220.304 259.256 220.294 259.334 C 219.761 263.547 218.544 267.431 216.644 270.984 C 209.974 283.394 194.564 283.794 183.414 278.134 C 163.924 268.224 155.794 245.044 155.634 224.514 C 155.541 213.154 155.541 186.447 155.634 144.394 C 155.634 144.151 155.831 143.954 156.074 143.954 C 167.714 144.054 179.094 143.304 188.764 144.734 C 199.457 146.321 208.964 149.987 217.284 155.734 C 232.884 166.504 243.734 184.564 250.234 202.514 C 250.414 203.021 250.664 203.274 250.984 203.274 Z M 243.334 235.674 C 243.426 235.684 243.518 235.651 243.582 235.585 C 243.647 235.518 243.677 235.426 243.664 235.334 C 241.977 224.907 239.114 214.797 235.074 205.004 C 227.504 186.674 217.874 170.434 201.494 161.744 C 192.674 157.074 183.684 155.964 173.894 155.444 C 173.736 155.439 173.588 155.519 173.506 155.653 C 173.423 155.787 173.419 155.956 173.494 156.094 C 183.214 173.374 194.474 191.687 207.274 211.034 C 210.121 215.341 213.791 219.594 218.284 223.794 C 225.464 230.514 233.814 234.474 243.334 235.674 Z M 258.794 235.934 C 268.327 234.721 276.684 230.741 283.864 223.994 C 288.357 219.787 292.027 215.524 294.874 211.204 C 307.661 191.811 318.907 173.451 328.614 156.124 C 328.689 155.986 328.685 155.817 328.602 155.683 C 328.519 155.549 328.371 155.469 328.214 155.474 C 318.414 156.014 309.414 157.134 300.584 161.824 C 284.194 170.554 274.574 186.834 267.014 205.204 C 262.987 215.017 260.137 225.147 258.464 235.594 C 258.451 235.686 258.481 235.778 258.546 235.845 C 258.61 235.911 258.702 235.944 258.794 235.934 Z" style="stroke-width: 1px;"/>
</svg>
